<mxfile host="app.diagrams.net" agent="Mozilla/5.0 (X11; Linux x86_64; rv:131.0) Gecko/20100101 Firefox/131.0" version="24.7.17" pages="2">
  <diagram name="Page-1" id="ZYkSSOSPUJz7BVzOavnn">
    <mxGraphModel grid="1" page="1" gridSize="10" guides="1" tooltips="1" connect="1" arrows="1" fold="1" pageScale="1" pageWidth="850" pageHeight="1100" math="0" shadow="0">
      <root>
        <mxCell id="0" />
        <mxCell id="1" parent="0" />
        <mxCell id="pvBKDiyFveWgpdeOYWHf-1" value="Data understanding" style="points=[[0.25,0,0],[0.5,0,0],[0.75,0,0],[1,0.25,0],[1,0.5,0],[1,0.75,0],[0.75,1,0],[0.5,1,0],[0.25,1,0],[0,0.75,0],[0,0.5,0],[0,0.25,0]];shape=mxgraph.bpmn.task;whiteSpace=wrap;rectStyle=rounded;size=10;html=1;container=1;expand=0;collapsible=0;taskMarker=abstract;" vertex="1" parent="1">
          <mxGeometry x="380" y="170" width="120" height="80" as="geometry" />
        </mxCell>
        <mxCell id="pvBKDiyFveWgpdeOYWHf-2" value="Start project" style="points=[[0.145,0.145,0],[0.5,0,0],[0.855,0.145,0],[1,0.5,0],[0.855,0.855,0],[0.5,1,0],[0.145,0.855,0],[0,0.5,0]];shape=mxgraph.bpmn.event;html=1;verticalLabelPosition=bottom;labelBackgroundColor=#ffffff;verticalAlign=top;align=center;perimeter=ellipsePerimeter;outlineConnect=0;aspect=fixed;outline=standard;symbol=general;" vertex="1" parent="1">
          <mxGeometry x="220" y="185" width="50" height="50" as="geometry" />
        </mxCell>
        <mxCell id="pvBKDiyFveWgpdeOYWHf-3" style="edgeStyle=orthogonalEdgeStyle;rounded=0;orthogonalLoop=1;jettySize=auto;html=1;entryX=0;entryY=0.5;entryDx=0;entryDy=0;entryPerimeter=0;" edge="1" parent="1" source="pvBKDiyFveWgpdeOYWHf-2" target="pvBKDiyFveWgpdeOYWHf-1">
          <mxGeometry relative="1" as="geometry" />
        </mxCell>
        <mxCell id="pvBKDiyFveWgpdeOYWHf-4" value="Data cleaning" style="points=[[0.25,0,0],[0.5,0,0],[0.75,0,0],[1,0.25,0],[1,0.5,0],[1,0.75,0],[0.75,1,0],[0.5,1,0],[0.25,1,0],[0,0.75,0],[0,0.5,0],[0,0.25,0]];shape=mxgraph.bpmn.task;whiteSpace=wrap;rectStyle=rounded;size=10;html=1;container=1;expand=0;collapsible=0;taskMarker=abstract;" vertex="1" parent="1">
          <mxGeometry x="640" y="170" width="120" height="80" as="geometry" />
        </mxCell>
        <mxCell id="pvBKDiyFveWgpdeOYWHf-5" style="edgeStyle=orthogonalEdgeStyle;rounded=0;orthogonalLoop=1;jettySize=auto;html=1;entryX=0;entryY=0.5;entryDx=0;entryDy=0;entryPerimeter=0;" edge="1" parent="1" source="pvBKDiyFveWgpdeOYWHf-1" target="pvBKDiyFveWgpdeOYWHf-4">
          <mxGeometry relative="1" as="geometry" />
        </mxCell>
        <mxCell id="pvBKDiyFveWgpdeOYWHf-6" value="Base model" style="points=[[0.25,0,0],[0.5,0,0],[0.75,0,0],[1,0.25,0],[1,0.5,0],[1,0.75,0],[0.75,1,0],[0.5,1,0],[0.25,1,0],[0,0.75,0],[0,0.5,0],[0,0.25,0]];shape=mxgraph.bpmn.task;whiteSpace=wrap;rectStyle=rounded;size=10;html=1;container=1;expand=0;collapsible=0;taskMarker=abstract;" vertex="1" parent="1">
          <mxGeometry x="890" y="170" width="120" height="80" as="geometry" />
        </mxCell>
        <mxCell id="pvBKDiyFveWgpdeOYWHf-7" style="edgeStyle=orthogonalEdgeStyle;rounded=0;orthogonalLoop=1;jettySize=auto;html=1;entryX=0;entryY=0.5;entryDx=0;entryDy=0;entryPerimeter=0;" edge="1" parent="1" source="pvBKDiyFveWgpdeOYWHf-4" target="pvBKDiyFveWgpdeOYWHf-6">
          <mxGeometry relative="1" as="geometry" />
        </mxCell>
        <mxCell id="pvBKDiyFveWgpdeOYWHf-8" style="edgeStyle=orthogonalEdgeStyle;rounded=0;orthogonalLoop=1;jettySize=auto;html=1;entryX=0.5;entryY=0;entryDx=0;entryDy=0;entryPerimeter=0;" edge="1" parent="1" source="pvBKDiyFveWgpdeOYWHf-4" target="pvBKDiyFveWgpdeOYWHf-1">
          <mxGeometry relative="1" as="geometry">
            <Array as="points">
              <mxPoint x="710" y="80" />
              <mxPoint x="440" y="80" />
            </Array>
          </mxGeometry>
        </mxCell>
        <mxCell id="pvBKDiyFveWgpdeOYWHf-9" value="Create first model" style="points=[[0.25,0,0],[0.5,0,0],[0.75,0,0],[1,0.25,0],[1,0.5,0],[1,0.75,0],[0.75,1,0],[0.5,1,0],[0.25,1,0],[0,0.75,0],[0,0.5,0],[0,0.25,0]];shape=mxgraph.bpmn.task;whiteSpace=wrap;rectStyle=rounded;size=10;html=1;container=1;expand=0;collapsible=0;taskMarker=abstract;" vertex="1" parent="1">
          <mxGeometry x="890" y="320" width="120" height="80" as="geometry" />
        </mxCell>
        <mxCell id="pvBKDiyFveWgpdeOYWHf-10" style="edgeStyle=orthogonalEdgeStyle;rounded=0;orthogonalLoop=1;jettySize=auto;html=1;entryX=0;entryY=0.5;entryDx=0;entryDy=0;entryPerimeter=0;" edge="1" parent="1" source="pvBKDiyFveWgpdeOYWHf-4" target="pvBKDiyFveWgpdeOYWHf-9">
          <mxGeometry relative="1" as="geometry">
            <Array as="points">
              <mxPoint x="700" y="360" />
            </Array>
          </mxGeometry>
        </mxCell>
        <mxCell id="pvBKDiyFveWgpdeOYWHf-11" value="" style="shape=datastore;html=1;labelPosition=center;verticalLabelPosition=bottom;align=center;verticalAlign=top;" vertex="1" parent="1">
          <mxGeometry x="500" y="340" width="100" height="100" as="geometry" />
        </mxCell>
        <mxCell id="pvBKDiyFveWgpdeOYWHf-12" style="edgeStyle=orthogonalEdgeStyle;rounded=0;orthogonalLoop=1;jettySize=auto;html=1;entryX=0.45;entryY=1.05;entryDx=0;entryDy=0;entryPerimeter=0;exitX=0;exitY=0.5;exitDx=0;exitDy=0;dashed=1;" edge="1" parent="1" source="pvBKDiyFveWgpdeOYWHf-11" target="pvBKDiyFveWgpdeOYWHf-1">
          <mxGeometry relative="1" as="geometry">
            <Array as="points">
              <mxPoint x="434" y="390" />
            </Array>
          </mxGeometry>
        </mxCell>
        <mxCell id="pvBKDiyFveWgpdeOYWHf-13" style="edgeStyle=orthogonalEdgeStyle;rounded=0;orthogonalLoop=1;jettySize=auto;html=1;entryX=0.25;entryY=1;entryDx=0;entryDy=0;entryPerimeter=0;dashed=1;" edge="1" parent="1" source="pvBKDiyFveWgpdeOYWHf-11" target="pvBKDiyFveWgpdeOYWHf-4">
          <mxGeometry relative="1" as="geometry" />
        </mxCell>
        <mxCell id="-fF4s2EAyu2vf_kEPsdD-1" style="edgeStyle=orthogonalEdgeStyle;rounded=0;orthogonalLoop=1;jettySize=auto;html=1;entryX=0.175;entryY=0.988;entryDx=0;entryDy=0;entryPerimeter=0;exitX=0.25;exitY=1;exitDx=0;exitDy=0;exitPerimeter=0;" edge="1" parent="1" source="pvBKDiyFveWgpdeOYWHf-9" target="pvBKDiyFveWgpdeOYWHf-1">
          <mxGeometry relative="1" as="geometry">
            <Array as="points">
              <mxPoint x="920" y="520" />
              <mxPoint x="401" y="520" />
            </Array>
          </mxGeometry>
        </mxCell>
        <mxCell id="-fF4s2EAyu2vf_kEPsdD-5" style="edgeStyle=orthogonalEdgeStyle;rounded=0;orthogonalLoop=1;jettySize=auto;html=1;" edge="1" parent="1" source="-fF4s2EAyu2vf_kEPsdD-2" target="-fF4s2EAyu2vf_kEPsdD-4">
          <mxGeometry relative="1" as="geometry" />
        </mxCell>
        <mxCell id="-fF4s2EAyu2vf_kEPsdD-2" value="" style="points=[[0.25,0.25,0],[0.5,0,0],[0.75,0.25,0],[1,0.5,0],[0.75,0.75,0],[0.5,1,0],[0.25,0.75,0],[0,0.5,0]];shape=mxgraph.bpmn.gateway2;html=1;verticalLabelPosition=bottom;labelBackgroundColor=#ffffff;verticalAlign=top;align=center;perimeter=rhombusPerimeter;outlineConnect=0;outline=none;symbol=none;gwType=parallel;" vertex="1" parent="1">
          <mxGeometry x="1180" y="335" width="50" height="50" as="geometry" />
        </mxCell>
        <mxCell id="-fF4s2EAyu2vf_kEPsdD-3" style="edgeStyle=orthogonalEdgeStyle;rounded=0;orthogonalLoop=1;jettySize=auto;html=1;entryX=0;entryY=0.5;entryDx=0;entryDy=0;entryPerimeter=0;" edge="1" parent="1" source="pvBKDiyFveWgpdeOYWHf-9" target="-fF4s2EAyu2vf_kEPsdD-2">
          <mxGeometry relative="1" as="geometry" />
        </mxCell>
        <mxCell id="-fF4s2EAyu2vf_kEPsdD-9" style="edgeStyle=orthogonalEdgeStyle;rounded=0;orthogonalLoop=1;jettySize=auto;html=1;entryX=0;entryY=0.3;entryDx=0;entryDy=0;dashed=1;" edge="1" parent="1" source="-fF4s2EAyu2vf_kEPsdD-4" target="-fF4s2EAyu2vf_kEPsdD-8">
          <mxGeometry relative="1" as="geometry" />
        </mxCell>
        <mxCell id="-fF4s2EAyu2vf_kEPsdD-4" value="Improve model/other model, etc" style="points=[[0.25,0,0],[0.5,0,0],[0.75,0,0],[1,0.25,0],[1,0.5,0],[1,0.75,0],[0.75,1,0],[0.5,1,0],[0.25,1,0],[0,0.75,0],[0,0.5,0],[0,0.25,0]];shape=mxgraph.bpmn.task;whiteSpace=wrap;rectStyle=rounded;size=10;html=1;container=1;expand=0;collapsible=0;taskMarker=abstract;" vertex="1" parent="1">
          <mxGeometry x="1145" y="490" width="120" height="80" as="geometry" />
        </mxCell>
        <mxCell id="-fF4s2EAyu2vf_kEPsdD-6" value="Create interface" style="points=[[0.25,0,0],[0.5,0,0],[0.75,0,0],[1,0.25,0],[1,0.5,0],[1,0.75,0],[0.75,1,0],[0.5,1,0],[0.25,1,0],[0,0.75,0],[0,0.5,0],[0,0.25,0]];shape=mxgraph.bpmn.task;whiteSpace=wrap;rectStyle=rounded;size=10;html=1;container=1;expand=0;collapsible=0;taskMarker=abstract;" vertex="1" parent="1">
          <mxGeometry x="1370" y="320" width="120" height="80" as="geometry" />
        </mxCell>
        <mxCell id="-fF4s2EAyu2vf_kEPsdD-7" style="edgeStyle=orthogonalEdgeStyle;rounded=0;orthogonalLoop=1;jettySize=auto;html=1;entryX=0;entryY=0.5;entryDx=0;entryDy=0;entryPerimeter=0;" edge="1" parent="1" source="-fF4s2EAyu2vf_kEPsdD-2" target="-fF4s2EAyu2vf_kEPsdD-6">
          <mxGeometry relative="1" as="geometry" />
        </mxCell>
        <mxCell id="-fF4s2EAyu2vf_kEPsdD-8" value="" style="shape=datastore;html=1;labelPosition=center;verticalLabelPosition=bottom;align=center;verticalAlign=top;" vertex="1" parent="1">
          <mxGeometry x="1370" y="500" width="100" height="100" as="geometry" />
        </mxCell>
        <mxCell id="-fF4s2EAyu2vf_kEPsdD-11" style="edgeStyle=orthogonalEdgeStyle;rounded=0;orthogonalLoop=1;jettySize=auto;html=1;entryX=0.408;entryY=1.025;entryDx=0;entryDy=0;entryPerimeter=0;dashed=1;" edge="1" parent="1" source="-fF4s2EAyu2vf_kEPsdD-8" target="-fF4s2EAyu2vf_kEPsdD-6">
          <mxGeometry relative="1" as="geometry">
            <Array as="points">
              <mxPoint x="1420" y="450" />
            </Array>
          </mxGeometry>
        </mxCell>
        <mxCell id="-fF4s2EAyu2vf_kEPsdD-12" value="Compare model to baseline" style="points=[[0.25,0,0],[0.5,0,0],[0.75,0,0],[1,0.25,0],[1,0.5,0],[1,0.75,0],[0.75,1,0],[0.5,1,0],[0.25,1,0],[0,0.75,0],[0,0.5,0],[0,0.25,0]];shape=mxgraph.bpmn.task;whiteSpace=wrap;rectStyle=rounded;size=10;html=1;container=1;expand=0;collapsible=0;taskMarker=abstract;" vertex="1" parent="1">
          <mxGeometry x="1140" y="160" width="120" height="80" as="geometry" />
        </mxCell>
        <mxCell id="-fF4s2EAyu2vf_kEPsdD-13" style="edgeStyle=orthogonalEdgeStyle;rounded=0;orthogonalLoop=1;jettySize=auto;html=1;entryX=0.25;entryY=1;entryDx=0;entryDy=0;entryPerimeter=0;" edge="1" parent="1" source="-fF4s2EAyu2vf_kEPsdD-4" target="-fF4s2EAyu2vf_kEPsdD-12">
          <mxGeometry relative="1" as="geometry">
            <Array as="points">
              <mxPoint x="1100" y="530" />
              <mxPoint x="1100" y="300" />
              <mxPoint x="1170" y="300" />
            </Array>
          </mxGeometry>
        </mxCell>
        <mxCell id="-fF4s2EAyu2vf_kEPsdD-14" style="edgeStyle=orthogonalEdgeStyle;rounded=0;orthogonalLoop=1;jettySize=auto;html=1;entryX=-0.025;entryY=0.625;entryDx=0;entryDy=0;entryPerimeter=0;" edge="1" parent="1" source="pvBKDiyFveWgpdeOYWHf-6" target="-fF4s2EAyu2vf_kEPsdD-12">
          <mxGeometry relative="1" as="geometry" />
        </mxCell>
      </root>
    </mxGraphModel>
  </diagram>
  <diagram id="WHfgnOwg2Z7aC-nP0YFd" name="Page-2">
    <mxGraphModel grid="1" page="1" gridSize="10" guides="1" tooltips="1" connect="1" arrows="1" fold="1" pageScale="1" pageWidth="850" pageHeight="1100" math="0" shadow="0">
      <root>
        <mxCell id="0" />
        <mxCell id="1" parent="0" />
        <mxCell id="MewTqhC3lG2yBs7zod0M-16" value="Pool" style="swimlane;html=1;childLayout=stackLayout;resizeParent=1;resizeParentMax=0;horizontal=1;startSize=20;horizontalStack=0;whiteSpace=wrap;" vertex="1" parent="1">
          <mxGeometry x="-150" y="-320" width="1340" height="1140" as="geometry" />
        </mxCell>
        <mxCell id="MewTqhC3lG2yBs7zod0M-17" value="Melder" style="swimlane;html=1;startSize=20;horizontal=0;" vertex="1" parent="MewTqhC3lG2yBs7zod0M-16">
          <mxGeometry y="20" width="1340" height="420" as="geometry" />
        </mxCell>
        <mxCell id="MewTqhC3lG2yBs7zod0M-5" style="edgeStyle=orthogonalEdgeStyle;rounded=0;orthogonalLoop=1;jettySize=auto;html=1;" edge="1" parent="MewTqhC3lG2yBs7zod0M-17" source="MewTqhC3lG2yBs7zod0M-1" target="MewTqhC3lG2yBs7zod0M-6">
          <mxGeometry relative="1" as="geometry">
            <mxPoint x="480" y="315" as="targetPoint" />
            <Array as="points">
              <mxPoint x="460" y="315" />
              <mxPoint x="460" y="315" />
            </Array>
          </mxGeometry>
        </mxCell>
        <mxCell id="MewTqhC3lG2yBs7zod0M-27" style="edgeStyle=orthogonalEdgeStyle;rounded=0;orthogonalLoop=1;jettySize=auto;html=1;dashed=1;" edge="1" parent="MewTqhC3lG2yBs7zod0M-17" source="MewTqhC3lG2yBs7zod0M-1">
          <mxGeometry relative="1" as="geometry">
            <mxPoint x="205" y="920" as="targetPoint" />
          </mxGeometry>
        </mxCell>
        <mxCell id="MewTqhC3lG2yBs7zod0M-1" value="Melding komt binnen" style="points=[[0.145,0.145,0],[0.5,0,0],[0.855,0.145,0],[1,0.5,0],[0.855,0.855,0],[0.5,1,0],[0.145,0.855,0],[0,0.5,0]];shape=mxgraph.bpmn.event;html=1;verticalLabelPosition=bottom;labelBackgroundColor=#ffffff;verticalAlign=top;align=center;perimeter=ellipsePerimeter;outlineConnect=0;aspect=fixed;outline=standard;symbol=general;" vertex="1" parent="MewTqhC3lG2yBs7zod0M-17">
          <mxGeometry x="180" y="290" width="50" height="50" as="geometry" />
        </mxCell>
        <mxCell id="MewTqhC3lG2yBs7zod0M-6" value="Verify data" style="points=[[0.25,0,0],[0.5,0,0],[0.75,0,0],[1,0.25,0],[1,0.5,0],[1,0.75,0],[0.75,1,0],[0.5,1,0],[0.25,1,0],[0,0.75,0],[0,0.5,0],[0,0.25,0]];shape=mxgraph.bpmn.task;whiteSpace=wrap;rectStyle=rounded;size=10;html=1;container=1;expand=0;collapsible=0;taskMarker=abstract;" vertex="1" parent="MewTqhC3lG2yBs7zod0M-17">
          <mxGeometry x="530" y="280" width="120" height="80" as="geometry" />
        </mxCell>
        <mxCell id="MewTqhC3lG2yBs7zod0M-11" style="edgeStyle=orthogonalEdgeStyle;rounded=0;orthogonalLoop=1;jettySize=auto;html=1;entryX=0.5;entryY=1;entryDx=0;entryDy=0;entryPerimeter=0;" edge="1" parent="MewTqhC3lG2yBs7zod0M-17" source="MewTqhC3lG2yBs7zod0M-8">
          <mxGeometry relative="1" as="geometry">
            <mxPoint x="745" y="200" as="targetPoint" />
          </mxGeometry>
        </mxCell>
        <mxCell id="MewTqhC3lG2yBs7zod0M-12" value="Nee" style="edgeLabel;html=1;align=center;verticalAlign=middle;resizable=0;points=[];" connectable="0" vertex="1" parent="MewTqhC3lG2yBs7zod0M-11">
          <mxGeometry x="-0.4526" relative="1" as="geometry">
            <mxPoint as="offset" />
          </mxGeometry>
        </mxCell>
        <mxCell id="MewTqhC3lG2yBs7zod0M-8" value="Data correct?" style="points=[[0.25,0.25,0],[0.5,0,0],[0.75,0.25,0],[1,0.5,0],[0.75,0.75,0],[0.5,1,0],[0.25,0.75,0],[0,0.5,0]];shape=mxgraph.bpmn.gateway2;html=1;verticalLabelPosition=bottom;labelBackgroundColor=#ffffff;verticalAlign=top;align=center;perimeter=rhombusPerimeter;outlineConnect=0;outline=none;symbol=none;" vertex="1" parent="MewTqhC3lG2yBs7zod0M-17">
          <mxGeometry x="720" y="295" width="50" height="50" as="geometry" />
        </mxCell>
        <mxCell id="MewTqhC3lG2yBs7zod0M-9" style="edgeStyle=orthogonalEdgeStyle;rounded=0;orthogonalLoop=1;jettySize=auto;html=1;entryX=0;entryY=0.5;entryDx=0;entryDy=0;entryPerimeter=0;" edge="1" parent="MewTqhC3lG2yBs7zod0M-17" source="MewTqhC3lG2yBs7zod0M-6" target="MewTqhC3lG2yBs7zod0M-8">
          <mxGeometry relative="1" as="geometry" />
        </mxCell>
        <mxCell id="MewTqhC3lG2yBs7zod0M-13" value="Give succesful alert" style="points=[[0.25,0,0],[0.5,0,0],[0.75,0,0],[1,0.25,0],[1,0.5,0],[1,0.75,0],[0.75,1,0],[0.5,1,0],[0.25,1,0],[0,0.75,0],[0,0.5,0],[0,0.25,0]];shape=mxgraph.bpmn.task;whiteSpace=wrap;rectStyle=rounded;size=10;html=1;container=1;expand=0;collapsible=0;taskMarker=abstract;" vertex="1" parent="MewTqhC3lG2yBs7zod0M-17">
          <mxGeometry x="900" y="280" width="120" height="80" as="geometry" />
        </mxCell>
        <mxCell id="MewTqhC3lG2yBs7zod0M-14" style="edgeStyle=orthogonalEdgeStyle;rounded=0;orthogonalLoop=1;jettySize=auto;html=1;entryX=0;entryY=0.5;entryDx=0;entryDy=0;entryPerimeter=0;" edge="1" parent="MewTqhC3lG2yBs7zod0M-17" source="MewTqhC3lG2yBs7zod0M-8" target="MewTqhC3lG2yBs7zod0M-13">
          <mxGeometry relative="1" as="geometry" />
        </mxCell>
        <mxCell id="MewTqhC3lG2yBs7zod0M-15" value="Ja" style="edgeLabel;html=1;align=center;verticalAlign=middle;resizable=0;points=[];" connectable="0" vertex="1" parent="MewTqhC3lG2yBs7zod0M-14">
          <mxGeometry x="-0.2154" y="-5" relative="1" as="geometry">
            <mxPoint x="-11" y="-5" as="offset" />
          </mxGeometry>
        </mxCell>
        <mxCell id="MewTqhC3lG2yBs7zod0M-20" value="Give warning that data is incorrect" style="points=[[0.25,0,0],[0.5,0,0],[0.75,0,0],[1,0.25,0],[1,0.5,0],[1,0.75,0],[0.75,1,0],[0.5,1,0],[0.25,1,0],[0,0.75,0],[0,0.5,0],[0,0.25,0]];shape=mxgraph.bpmn.task;whiteSpace=wrap;rectStyle=rounded;size=10;html=1;container=1;expand=0;collapsible=0;taskMarker=abstract;" vertex="1" parent="MewTqhC3lG2yBs7zod0M-17">
          <mxGeometry x="685" y="120" width="120" height="80" as="geometry" />
        </mxCell>
        <mxCell id="MewTqhC3lG2yBs7zod0M-21" value="" style="points=[[0.145,0.145,0],[0.5,0,0],[0.855,0.145,0],[1,0.5,0],[0.855,0.855,0],[0.5,1,0],[0.145,0.855,0],[0,0.5,0]];shape=mxgraph.bpmn.event;html=1;verticalLabelPosition=bottom;labelBackgroundColor=#ffffff;verticalAlign=top;align=center;perimeter=ellipsePerimeter;outlineConnect=0;aspect=fixed;outline=end;symbol=terminate;" vertex="1" parent="MewTqhC3lG2yBs7zod0M-17">
          <mxGeometry x="720" y="30" width="50" height="50" as="geometry" />
        </mxCell>
        <mxCell id="MewTqhC3lG2yBs7zod0M-22" style="edgeStyle=orthogonalEdgeStyle;rounded=0;orthogonalLoop=1;jettySize=auto;html=1;entryX=0.5;entryY=1;entryDx=0;entryDy=0;entryPerimeter=0;" edge="1" parent="MewTqhC3lG2yBs7zod0M-17" source="MewTqhC3lG2yBs7zod0M-20" target="MewTqhC3lG2yBs7zod0M-21">
          <mxGeometry relative="1" as="geometry" />
        </mxCell>
        <mxCell id="MewTqhC3lG2yBs7zod0M-18" value="Model" style="swimlane;html=1;startSize=20;horizontal=0;" vertex="1" parent="MewTqhC3lG2yBs7zod0M-16">
          <mxGeometry y="440" width="1340" height="330" as="geometry" />
        </mxCell>
        <mxCell id="MewTqhC3lG2yBs7zod0M-23" value="" style="shape=datastore;html=1;labelPosition=center;verticalLabelPosition=bottom;align=center;verticalAlign=top;" vertex="1" parent="MewTqhC3lG2yBs7zod0M-18">
          <mxGeometry x="920" y="80" width="100" height="100" as="geometry" />
        </mxCell>
        <mxCell id="MewTqhC3lG2yBs7zod0M-25" value="Maak voorspelling" style="points=[[0.25,0,0],[0.5,0,0],[0.75,0,0],[1,0.25,0],[1,0.5,0],[1,0.75,0],[0.75,1,0],[0.5,1,0],[0.25,1,0],[0,0.75,0],[0,0.5,0],[0,0.25,0]];shape=mxgraph.bpmn.task;whiteSpace=wrap;rectStyle=rounded;size=10;html=1;container=1;expand=0;collapsible=0;taskMarker=abstract;" vertex="1" parent="MewTqhC3lG2yBs7zod0M-18">
          <mxGeometry x="680" y="90" width="120" height="80" as="geometry" />
        </mxCell>
        <mxCell id="MewTqhC3lG2yBs7zod0M-26" style="edgeStyle=orthogonalEdgeStyle;rounded=0;orthogonalLoop=1;jettySize=auto;html=1;entryX=1;entryY=0.5;entryDx=0;entryDy=0;entryPerimeter=0;dashed=1;" edge="1" parent="MewTqhC3lG2yBs7zod0M-18" source="MewTqhC3lG2yBs7zod0M-23" target="MewTqhC3lG2yBs7zod0M-25">
          <mxGeometry relative="1" as="geometry" />
        </mxCell>
        <mxCell id="MewTqhC3lG2yBs7zod0M-19" value="Prorail" style="swimlane;html=1;startSize=20;horizontal=0;" vertex="1" parent="MewTqhC3lG2yBs7zod0M-16">
          <mxGeometry y="770" width="1340" height="370" as="geometry" />
        </mxCell>
        <mxCell id="MewTqhC3lG2yBs7zod0M-29" value="Analyzeren probleem" style="points=[[0.25,0,0],[0.5,0,0],[0.75,0,0],[1,0.25,0],[1,0.5,0],[1,0.75,0],[0.75,1,0],[0.5,1,0],[0.25,1,0],[0,0.75,0],[0,0.5,0],[0,0.25,0]];shape=mxgraph.bpmn.task;whiteSpace=wrap;rectStyle=rounded;size=10;html=1;container=1;expand=0;collapsible=0;taskMarker=abstract;" vertex="1" parent="MewTqhC3lG2yBs7zod0M-19">
          <mxGeometry x="150" y="170" width="120" height="80" as="geometry" />
        </mxCell>
        <mxCell id="MewTqhC3lG2yBs7zod0M-35" style="edgeStyle=orthogonalEdgeStyle;rounded=0;orthogonalLoop=1;jettySize=auto;html=1;" edge="1" parent="MewTqhC3lG2yBs7zod0M-19" source="MewTqhC3lG2yBs7zod0M-31" target="MewTqhC3lG2yBs7zod0M-34">
          <mxGeometry relative="1" as="geometry" />
        </mxCell>
        <mxCell id="MewTqhC3lG2yBs7zod0M-36" value="Nee" style="edgeLabel;html=1;align=center;verticalAlign=middle;resizable=0;points=[];" connectable="0" vertex="1" parent="MewTqhC3lG2yBs7zod0M-35">
          <mxGeometry x="-0.2267" relative="1" as="geometry">
            <mxPoint as="offset" />
          </mxGeometry>
        </mxCell>
        <mxCell id="MewTqhC3lG2yBs7zod0M-37" style="edgeStyle=orthogonalEdgeStyle;rounded=0;orthogonalLoop=1;jettySize=auto;html=1;" edge="1" parent="MewTqhC3lG2yBs7zod0M-19" source="MewTqhC3lG2yBs7zod0M-31">
          <mxGeometry relative="1" as="geometry">
            <mxPoint x="480" y="210" as="targetPoint" />
          </mxGeometry>
        </mxCell>
        <mxCell id="MewTqhC3lG2yBs7zod0M-38" value="Ja" style="edgeLabel;html=1;align=center;verticalAlign=middle;resizable=0;points=[];" connectable="0" vertex="1" parent="MewTqhC3lG2yBs7zod0M-37">
          <mxGeometry x="-0.2486" y="-4" relative="1" as="geometry">
            <mxPoint as="offset" />
          </mxGeometry>
        </mxCell>
        <mxCell id="MewTqhC3lG2yBs7zod0M-31" value="Actie nodig?" style="points=[[0.25,0.25,0],[0.5,0,0],[0.75,0.25,0],[1,0.5,0],[0.75,0.75,0],[0.5,1,0],[0.25,0.75,0],[0,0.5,0]];shape=mxgraph.bpmn.gateway2;html=1;verticalLabelPosition=bottom;labelBackgroundColor=#ffffff;verticalAlign=top;align=center;perimeter=rhombusPerimeter;outlineConnect=0;outline=none;symbol=none;" vertex="1" parent="MewTqhC3lG2yBs7zod0M-19">
          <mxGeometry x="340" y="185" width="50" height="50" as="geometry" />
        </mxCell>
        <mxCell id="MewTqhC3lG2yBs7zod0M-32" style="edgeStyle=orthogonalEdgeStyle;rounded=0;orthogonalLoop=1;jettySize=auto;html=1;entryX=0;entryY=0.5;entryDx=0;entryDy=0;entryPerimeter=0;" edge="1" parent="MewTqhC3lG2yBs7zod0M-19" source="MewTqhC3lG2yBs7zod0M-29" target="MewTqhC3lG2yBs7zod0M-31">
          <mxGeometry relative="1" as="geometry" />
        </mxCell>
        <mxCell id="MewTqhC3lG2yBs7zod0M-34" value="Melding afgehandeld" style="points=[[0.145,0.145,0],[0.5,0,0],[0.855,0.145,0],[1,0.5,0],[0.855,0.855,0],[0.5,1,0],[0.145,0.855,0],[0,0.5,0]];shape=mxgraph.bpmn.event;html=1;verticalLabelPosition=bottom;labelBackgroundColor=#ffffff;verticalAlign=top;align=center;perimeter=ellipsePerimeter;outlineConnect=0;aspect=fixed;outline=end;symbol=terminate;" vertex="1" parent="MewTqhC3lG2yBs7zod0M-19">
          <mxGeometry x="340" y="60" width="50" height="50" as="geometry" />
        </mxCell>
        <mxCell id="MewTqhC3lG2yBs7zod0M-40" value="" style="points=[[0.25,0.25,0],[0.5,0,0],[0.75,0.25,0],[1,0.5,0],[0.75,0.75,0],[0.5,1,0],[0.25,0.75,0],[0,0.5,0]];shape=mxgraph.bpmn.gateway2;html=1;verticalLabelPosition=bottom;labelBackgroundColor=#ffffff;verticalAlign=top;align=center;perimeter=rhombusPerimeter;outlineConnect=0;outline=none;symbol=none;gwType=parallel;" vertex="1" parent="MewTqhC3lG2yBs7zod0M-19">
          <mxGeometry x="480" y="185" width="50" height="50" as="geometry" />
        </mxCell>
        <mxCell id="MewTqhC3lG2yBs7zod0M-47" style="edgeStyle=orthogonalEdgeStyle;rounded=0;orthogonalLoop=1;jettySize=auto;html=1;" edge="1" parent="MewTqhC3lG2yBs7zod0M-19" source="MewTqhC3lG2yBs7zod0M-41" target="MewTqhC3lG2yBs7zod0M-46">
          <mxGeometry relative="1" as="geometry" />
        </mxCell>
        <mxCell id="MewTqhC3lG2yBs7zod0M-41" value="Eventueel aanemer aansturen" style="points=[[0.25,0,0],[0.5,0,0],[0.75,0,0],[1,0.25,0],[1,0.5,0],[1,0.75,0],[0.75,1,0],[0.5,1,0],[0.25,1,0],[0,0.75,0],[0,0.5,0],[0,0.25,0]];shape=mxgraph.bpmn.task;whiteSpace=wrap;rectStyle=rounded;size=10;html=1;container=1;expand=0;collapsible=0;taskMarker=abstract;" vertex="1" parent="MewTqhC3lG2yBs7zod0M-19">
          <mxGeometry x="550" y="60" width="120" height="80" as="geometry" />
        </mxCell>
        <mxCell id="MewTqhC3lG2yBs7zod0M-42" style="edgeStyle=orthogonalEdgeStyle;rounded=0;orthogonalLoop=1;jettySize=auto;html=1;entryX=0;entryY=0.5;entryDx=0;entryDy=0;entryPerimeter=0;" edge="1" parent="MewTqhC3lG2yBs7zod0M-19" source="MewTqhC3lG2yBs7zod0M-40" target="MewTqhC3lG2yBs7zod0M-41">
          <mxGeometry relative="1" as="geometry">
            <Array as="points">
              <mxPoint x="505" y="100" />
            </Array>
          </mxGeometry>
        </mxCell>
        <mxCell id="MewTqhC3lG2yBs7zod0M-43" value="Machinist in kennis stellen" style="points=[[0.25,0,0],[0.5,0,0],[0.75,0,0],[1,0.25,0],[1,0.5,0],[1,0.75,0],[0.75,1,0],[0.5,1,0],[0.25,1,0],[0,0.75,0],[0,0.5,0],[0,0.25,0]];shape=mxgraph.bpmn.task;whiteSpace=wrap;rectStyle=rounded;size=10;html=1;container=1;expand=0;collapsible=0;taskMarker=abstract;" vertex="1" parent="MewTqhC3lG2yBs7zod0M-19">
          <mxGeometry x="550" y="250" width="120" height="80" as="geometry" />
        </mxCell>
        <mxCell id="MewTqhC3lG2yBs7zod0M-45" style="edgeStyle=orthogonalEdgeStyle;rounded=0;orthogonalLoop=1;jettySize=auto;html=1;entryX=0;entryY=0.5;entryDx=0;entryDy=0;entryPerimeter=0;exitX=0.5;exitY=1;exitDx=0;exitDy=0;exitPerimeter=0;" edge="1" parent="MewTqhC3lG2yBs7zod0M-19" source="MewTqhC3lG2yBs7zod0M-40" target="MewTqhC3lG2yBs7zod0M-43">
          <mxGeometry relative="1" as="geometry">
            <Array as="points">
              <mxPoint x="505" y="290" />
            </Array>
          </mxGeometry>
        </mxCell>
        <mxCell id="MewTqhC3lG2yBs7zod0M-46" value="" style="points=[[0.25,0.25,0],[0.5,0,0],[0.75,0.25,0],[1,0.5,0],[0.75,0.75,0],[0.5,1,0],[0.25,0.75,0],[0,0.5,0]];shape=mxgraph.bpmn.gateway2;html=1;verticalLabelPosition=bottom;labelBackgroundColor=#ffffff;verticalAlign=top;align=center;perimeter=rhombusPerimeter;outlineConnect=0;outline=none;symbol=none;gwType=parallel;" vertex="1" parent="MewTqhC3lG2yBs7zod0M-19">
          <mxGeometry x="720" y="160" width="50" height="50" as="geometry" />
        </mxCell>
        <mxCell id="MewTqhC3lG2yBs7zod0M-48" style="edgeStyle=orthogonalEdgeStyle;rounded=0;orthogonalLoop=1;jettySize=auto;html=1;entryX=0.5;entryY=1;entryDx=0;entryDy=0;entryPerimeter=0;" edge="1" parent="MewTqhC3lG2yBs7zod0M-19" source="MewTqhC3lG2yBs7zod0M-43" target="MewTqhC3lG2yBs7zod0M-46">
          <mxGeometry relative="1" as="geometry" />
        </mxCell>
        <mxCell id="MewTqhC3lG2yBs7zod0M-56" style="edgeStyle=orthogonalEdgeStyle;rounded=0;orthogonalLoop=1;jettySize=auto;html=1;entryX=0;entryY=0.5;entryDx=0;entryDy=0;entryPerimeter=0;" edge="1" parent="MewTqhC3lG2yBs7zod0M-19" source="MewTqhC3lG2yBs7zod0M-49" target="MewTqhC3lG2yBs7zod0M-55">
          <mxGeometry relative="1" as="geometry">
            <mxPoint x="1090" y="185" as="targetPoint" />
          </mxGeometry>
        </mxCell>
        <mxCell id="MewTqhC3lG2yBs7zod0M-49" value="Planning aanpassen" style="points=[[0.25,0,0],[0.5,0,0],[0.75,0,0],[1,0.25,0],[1,0.5,0],[1,0.75,0],[0.75,1,0],[0.5,1,0],[0.25,1,0],[0,0.75,0],[0,0.5,0],[0,0.25,0]];shape=mxgraph.bpmn.task;whiteSpace=wrap;rectStyle=rounded;size=10;html=1;container=1;expand=0;collapsible=0;taskMarker=abstract;" vertex="1" parent="MewTqhC3lG2yBs7zod0M-19">
          <mxGeometry x="850" y="145" width="120" height="80" as="geometry" />
        </mxCell>
        <mxCell id="MewTqhC3lG2yBs7zod0M-50" style="edgeStyle=orthogonalEdgeStyle;rounded=0;orthogonalLoop=1;jettySize=auto;html=1;entryX=0;entryY=0.5;entryDx=0;entryDy=0;entryPerimeter=0;" edge="1" parent="MewTqhC3lG2yBs7zod0M-19" source="MewTqhC3lG2yBs7zod0M-46" target="MewTqhC3lG2yBs7zod0M-49">
          <mxGeometry relative="1" as="geometry" />
        </mxCell>
        <mxCell id="MewTqhC3lG2yBs7zod0M-55" value="Planning aangepast" style="points=[[0.145,0.145,0],[0.5,0,0],[0.855,0.145,0],[1,0.5,0],[0.855,0.855,0],[0.5,1,0],[0.145,0.855,0],[0,0.5,0]];shape=mxgraph.bpmn.event;html=1;verticalLabelPosition=bottom;labelBackgroundColor=#ffffff;verticalAlign=top;align=center;perimeter=ellipsePerimeter;outlineConnect=0;aspect=fixed;outline=end;symbol=terminate;" vertex="1" parent="MewTqhC3lG2yBs7zod0M-19">
          <mxGeometry x="1100" y="160" width="50" height="50" as="geometry" />
        </mxCell>
        <mxCell id="MewTqhC3lG2yBs7zod0M-51" style="edgeStyle=orthogonalEdgeStyle;rounded=0;orthogonalLoop=1;jettySize=auto;html=1;entryX=0.5;entryY=0;entryDx=0;entryDy=0;entryPerimeter=0;dashed=1;" edge="1" parent="MewTqhC3lG2yBs7zod0M-16" source="MewTqhC3lG2yBs7zod0M-25" target="MewTqhC3lG2yBs7zod0M-49">
          <mxGeometry relative="1" as="geometry">
            <Array as="points">
              <mxPoint x="740" y="720" />
              <mxPoint x="910" y="720" />
            </Array>
          </mxGeometry>
        </mxCell>
        <mxCell id="MewTqhC3lG2yBs7zod0M-52" style="edgeStyle=orthogonalEdgeStyle;rounded=0;orthogonalLoop=1;jettySize=auto;html=1;entryX=0.5;entryY=1;entryDx=0;entryDy=0;dashed=1;" edge="1" parent="MewTqhC3lG2yBs7zod0M-16" source="MewTqhC3lG2yBs7zod0M-41" target="MewTqhC3lG2yBs7zod0M-23">
          <mxGeometry relative="1" as="geometry">
            <Array as="points">
              <mxPoint x="610" y="740" />
              <mxPoint x="970" y="740" />
            </Array>
          </mxGeometry>
        </mxCell>
        <mxCell id="MewTqhC3lG2yBs7zod0M-53" style="edgeStyle=orthogonalEdgeStyle;rounded=0;orthogonalLoop=1;jettySize=auto;html=1;entryX=0.5;entryY=0;entryDx=0;entryDy=0;dashed=1;" edge="1" parent="MewTqhC3lG2yBs7zod0M-16" source="MewTqhC3lG2yBs7zod0M-13" target="MewTqhC3lG2yBs7zod0M-23">
          <mxGeometry relative="1" as="geometry" />
        </mxCell>
      </root>
    </mxGraphModel>
  </diagram>
</mxfile>
